<svg width="51" height="49" viewBox="0 0 51 49" fill="none" xmlns="http://www.w3.org/2000/svg">
<path d="M25.017 15.4785L25.4202 15.7756L25.8234 16.073L26.2266 16.3704L26.6297 16.6677L27.0329 16.9651L27.4361 17.2625L27.8393 17.5599L28.2425 17.8573L28.6456 18.1544L29.0488 18.4518L29.452 18.7492L29.8552 19.0465L30.2583 19.3439L30.6615 19.6413L31.0647 19.9385L31.4679 20.2358L31.871 20.5332L32.2742 20.8306L32.6774 21.128L33.0806 21.4253L33.4837 21.7227L33.8869 22.0201L34.2901 22.3175L34.6933 22.6149L35.0965 22.9122L35.4996 23.2094L35.9028 23.5068L36.306 23.8042L36.7092 24.1015L37.1123 24.3989L37.5155 24.6961L37.9187 24.9934V25.3271V25.6607V25.9944V26.328V26.6617V26.9953V27.329V27.6626V27.9962V28.3299V28.6635V28.9972V29.3308V29.6645V29.9981V30.3317V30.6654V30.999V31.3327V31.6663V32V32.3336V32.6672V33.0009V33.3345V33.6682V34.0018V34.3355V34.6691V35.0028V35.3364V35.67L37.7326 35.858L37.5464 36.0459L37.3603 36.2338L37.1742 36.4217L36.988 36.6097L36.8019 36.7976L36.6158 36.9855L36.4296 37.1734L36.2435 37.3613L36.0574 37.5493L35.8713 37.7372L35.6851 37.9251L35.499 38.113L35.3128 38.3009L35.1267 38.4889L34.9406 38.6768L34.7545 38.8647L34.5683 39.0526L34.3822 39.2406L34.1961 39.4285L34.0099 39.6164L33.8238 39.8043L33.6377 39.9922L33.4515 40.1802L33.2654 40.3681L33.0793 40.556L32.8931 40.7439L32.707 40.9318L32.5209 41.1198L32.3347 41.3077L32.1486 41.4956L31.9625 41.6835V41.2574V40.8312V40.405V39.9788V39.5527V39.1265V38.7003V38.2741V37.848V37.4218V36.9956V36.5694V36.1433V35.7171V35.2909V34.8647V34.4385V34.0124V33.5862V33.16V32.7338V32.3077V31.8815V31.4553V31.0291V30.603V30.1768V29.7506V29.3244V28.8983V28.4721V28.0459L31.7454 27.8859L31.5284 27.7259L31.3113 27.5659L31.0943 27.4059L30.8772 27.2459L30.6602 27.0859L30.4432 26.9259L30.2261 26.7658L30.0091 26.6058L29.792 26.4458L29.575 26.2858L29.3579 26.1258L29.1409 25.9658L28.9239 25.8058L28.7068 25.6458L28.4898 25.4858L28.2727 25.3258L28.0557 25.1658L27.8386 25.0058L27.6216 24.8457L27.4045 24.6857L27.1875 24.5257L26.9704 24.3657L26.7534 24.2057L26.5364 24.0457L26.3193 23.8857L26.1023 23.7257L25.8852 23.5657L25.6682 23.4057L25.4511 23.2457L25.2341 23.0857L25.017 22.9257L24.8 23.0857L24.5829 23.2457L24.3659 23.4057L24.1488 23.5657L23.9318 23.7257L23.7148 23.8857L23.4977 24.0457L23.2807 24.2057L23.0636 24.3657L22.8466 24.5257L22.6295 24.6857L22.4125 24.8457L22.1954 25.0058L21.9784 25.1658L21.7614 25.3258L21.5443 25.4858L21.3273 25.6458L21.1102 25.8058L20.8932 25.9658L20.6761 26.1258L20.4591 26.2858L20.242 26.4458L20.025 26.6058L19.808 26.7658L19.5909 26.9259L19.3739 27.0859L19.1568 27.2459L18.9398 27.4059L18.7227 27.5659L18.5057 27.7259L18.2886 27.8859L18.0716 28.0459V28.4721V28.8983V29.3244V29.7506V30.1768V30.603V31.0291V31.4553V31.8815V32.3077V32.7338V33.16V33.5862V34.0124V34.4385V34.8647V35.2909V35.7171V36.1433V36.5694V36.9956V37.4218V37.848V38.2741V38.7003V39.1265V39.5527V39.9788V40.405V40.8312V41.2574V41.6835L17.8854 41.4956L17.6993 41.3077L17.5132 41.1198L17.3271 40.9318L17.1409 40.7439L16.9548 40.556L16.7687 40.3681L16.5825 40.1802L16.3964 39.9922L16.2103 39.8043L16.0241 39.6164L15.838 39.4285L15.6519 39.2406L15.4657 39.0526L15.2796 38.8647L15.0935 38.6768L14.9074 38.4889L14.7212 38.3009L14.5351 38.113L14.3489 37.9251L14.1628 37.7372L13.9767 37.5493L13.7906 37.3613L13.6044 37.1734L13.4183 36.9855L13.2321 36.7976L13.046 36.6097L12.8599 36.4217L12.6738 36.2338L12.4876 36.0459L12.3015 35.858L12.1154 35.67V35.3364V35.0028V34.6691V34.3355V34.0018V33.6682V33.3345V33.0009V32.6672V32.3336V32V31.6663V31.3327V30.999V30.6654V30.3317V29.9981V29.6645V29.3308V28.9972V28.6635V28.3299V27.9962V27.6626V27.329V26.9953V26.6617V26.328V25.9944V25.6607V25.3271V24.9934L12.5185 24.6961L12.9217 24.3989L13.3249 24.1015L13.7281 23.8042L14.1312 23.5068L14.5344 23.2094L14.9376 22.9122L15.3408 22.6149L15.744 22.3175L16.1471 22.0201L16.5503 21.7227L16.9535 21.4253L17.3567 21.128L17.7598 20.8306L18.163 20.5332L18.5662 20.2358L18.9694 19.9385L19.3726 19.6413L19.7757 19.3439L20.1789 19.0465L20.5821 18.7492L20.9853 18.4518L21.3884 18.1544L21.7916 17.8573L22.1948 17.5599L22.598 17.2625L23.0011 16.9651L23.4043 16.6677L23.8075 16.3704L24.2107 16.073L24.6138 15.7756L25.017 15.4785ZM25.017 11.9033L24.9644 11.9422L24.9117 11.9811L24.859 12.02L24.8063 12.0589L24.7536 12.0978L24.7009 12.1367L24.6483 12.1756L24.5956 12.2145L24.5429 12.2535L24.4902 12.2924L24.4375 12.3313L24.3848 12.3702L24.3322 12.4091L24.2795 12.448L24.2268 12.4869L24.1741 12.5258L24.1214 12.5647L24.0688 12.6036L24.0161 12.6425L23.9634 12.6814L23.9107 12.7203L23.858 12.7592L23.8053 12.7981L23.7526 12.837L23.6999 12.8759L23.6473 12.9148L23.5946 12.9537L23.5419 12.9926L23.4892 13.0315L23.4365 13.0704L23.3839 13.1093L23.3312 13.1482L22.928 13.4456L22.5248 13.743L22.1216 14.0404L21.7185 14.3377L21.3153 14.6349L20.9121 14.9323L20.5089 15.2296L20.1057 15.527L19.7026 15.8244L19.2994 16.1218L18.8962 16.4192L18.493 16.7163L18.0899 17.0137L17.6867 17.3111L17.2835 17.6084L16.8803 17.9058L16.4772 18.2032L16.074 18.5006L15.6708 18.798L15.2676 19.0953L14.8645 19.3925L14.4613 19.6899L14.0581 19.9873L13.6549 20.2846L13.2518 20.582L12.8486 20.8794L12.4454 21.1765L12.0422 21.4739L11.639 21.7713L11.2359 22.0687L10.8327 22.3661L10.4295 22.6634L10.3929 22.6905L10.3564 22.7175L10.3198 22.7445L10.2832 22.7716L10.2466 22.7986L10.2101 22.8256L10.1735 22.8527L10.1369 22.8797L10.1003 22.9067L10.0638 22.9338L10.0272 22.9608L9.99062 22.9878L9.95405 23.0149L9.91749 23.0419L9.88092 23.069L9.84433 23.096L9.80776 23.123L9.77119 23.1501L9.73463 23.1771L9.69803 23.2041L9.66147 23.2312L9.6249 23.2582L9.58833 23.2852L9.55174 23.3123L9.51517 23.3393L9.47861 23.3663L9.44204 23.3934L9.40545 23.4204L9.36888 23.4474L9.33231 23.4745L9.29572 23.5015L9.25916 23.5285V23.5743V23.62V23.6659V23.7116V23.7573V23.8031V23.849V23.8949V23.9406V23.9864V24.0321V24.0778V24.1235V24.1692V24.2152V24.2609V24.3066V24.3523V24.398V24.4437V24.4895V24.5354V24.5811V24.6268V24.6726V24.7183V24.7642V24.8099V24.8556V24.9016V24.9473V24.993V25.3266V25.6603V25.9939V26.3276V26.6612V26.9949V27.3285V27.6622V27.9958V28.3294V28.6631V28.9967V29.3304V29.664V29.9977V30.3313V30.665V30.9986V31.3322V31.6659V31.9995V32.3332V32.6668V33.0005V33.3341V33.6677V34.0014V34.335V34.6687V35.0023V35.336V35.6696V35.707V35.7443V35.7817V35.8191V35.8564V35.8938V35.9312V35.9685V36.0059V36.0433V36.0806V36.118V36.1553V36.1927V36.2301V36.2674V36.3048V36.3422V36.3795V36.4169V36.4543V36.4916V36.529V36.5663V36.6037V36.6411V36.6784V36.7158V36.7532V36.7905V36.8279V36.8653L9.28528 36.8916L9.3114 36.918L9.33752 36.9444L9.36365 36.9708L9.38977 36.9971L9.41589 37.0235L9.44204 37.0499L9.46816 37.0763L9.49429 37.1026L9.52041 37.129L9.54653 37.1554L9.57265 37.1818L9.59878 37.2081L9.6249 37.2345L9.65102 37.2609L9.67715 37.2873L9.70327 37.3136L9.72939 37.34L9.75551 37.3664L9.78164 37.3928L9.80776 37.4191L9.83388 37.4455L9.86 37.4719L9.88613 37.4983L9.91225 37.5246L9.93837 37.551L9.9645 37.5774L9.99062 37.6038L10.0167 37.6301L10.0429 37.6565L10.069 37.6829L10.0951 37.7093L10.2813 37.8972L10.4674 38.0851L10.6535 38.273L10.8396 38.461L11.0258 38.6489L11.2119 38.8368L11.3981 39.0247L11.5842 39.2126L11.7703 39.4006L11.9564 39.5885L12.1426 39.7764L12.3287 39.9643L12.5148 40.1522L12.701 40.3402L12.8871 40.5281L13.0732 40.716L13.2594 40.9039L13.4455 41.0919L13.6316 41.2798L13.8178 41.4677L14.0039 41.6556L14.19 41.8435L14.3762 42.0315L14.5623 42.2194L14.7484 42.4073L14.9346 42.5952L15.1207 42.7832L15.3068 42.9711L15.4929 43.159L15.6791 43.3469L15.8652 43.5348L16.0514 43.7228L16.2039 43.8768L16.3566 44.0309L16.5092 44.185L16.6618 44.3391L16.8144 44.4931L16.967 44.6472L17.1196 44.8013L17.2722 44.9554L17.4248 45.1094L17.5774 45.2635L17.73 45.4176L17.8826 45.5716L18.0352 45.7257L18.1878 45.8798L18.3405 46.0339L18.493 46.1879L18.6457 46.342L18.7983 46.4961L18.9509 46.6502L19.1035 46.8042L19.2561 46.9583L19.4087 47.1124L19.5613 47.2665L19.7139 47.4205L19.8665 47.5746L20.0191 47.7287L20.1717 47.8828L20.3243 48.0368L20.4769 48.1909L20.6295 48.345L20.7821 48.4991L20.9348 48.6531V48.4353V48.2175V47.9997V47.7819V47.5641V47.3462V47.1284V46.9106V46.6928V46.475V46.2572V46.0394V45.8216V45.6037V45.3859V45.1681V44.9503V44.7325V44.5147V44.2969V44.079V43.8612V43.6434V43.4256V43.2078V42.99V42.7722V42.5544V42.3361V42.1183V41.9005V41.6827V41.3024V40.9222V40.5419V40.1617V39.7815V39.4012V39.021V38.6407V38.2605V37.8803V37.5V37.1198V36.7395V36.3593V35.9791V35.5988V35.2186V34.8383V34.4581V34.0779V33.6976V33.3174V32.9372V32.5569V32.1767V31.7964V31.4162V31.036V30.6557V30.2755V29.8952V29.515L21.0623 29.4209L21.1899 29.3269L21.3175 29.2328L21.4451 29.1387L21.5726 29.0446L21.7002 28.9506L21.8277 28.8565L21.9553 28.7624L22.0829 28.6684L22.2105 28.5743L22.338 28.4802L22.4656 28.3862L22.5932 28.2921L22.7208 28.198L22.8483 28.1039L22.9759 28.0099L23.1035 27.9158L23.231 27.8217L23.3586 27.7277L23.4862 27.6336L23.6137 27.5395L23.7413 27.4454L23.8689 27.3514L23.9965 27.2573L24.124 27.1632L24.2516 27.0692L24.3792 26.9751L24.5068 26.881L24.6343 26.7869L24.7619 26.6929L24.8895 26.5988L25.017 26.5047L25.1446 26.5988L25.2722 26.6929L25.3998 26.7869L25.5273 26.881L25.6549 26.9751L25.7825 27.0692L25.91 27.1632L26.0376 27.2573L26.1652 27.3514L26.2927 27.4454L26.4203 27.5395L26.5479 27.6336L26.6755 27.7277L26.803 27.8217L26.9306 27.9158L27.0582 28.0099L27.1858 28.1039L27.3133 28.198L27.4409 28.2921L27.5685 28.3862L27.696 28.4802L27.8236 28.5743L27.9512 28.6684L28.0787 28.7624L28.2063 28.8565L28.3339 28.9506L28.4615 29.0446L28.589 29.1387L28.7166 29.2328L28.8442 29.3269L28.9717 29.4209L29.0993 29.515V29.8952V30.2755V30.6557V31.036V31.4162V31.7964V32.1767V32.5569V32.9372V33.3174V33.6976V34.0779V34.4581V34.8383V35.2186V35.5988V35.9791V36.3593V36.7395V37.1198V37.5V37.8803V38.2605V38.6407V39.021V39.4012V39.7815V40.1617V40.5419V40.9222V41.3024V41.6827V41.9005V42.1183V42.3361V42.5539V42.7717V42.9895V43.2074V43.4252V43.643V43.8608V44.0786V44.2964V44.5142V44.7321V44.9499V45.1677V45.3855V45.6033V45.8211V46.0389V46.2567V46.4746V46.6924V46.9102V47.128V47.3458V47.5636V47.7814V47.9993V48.2171V48.4349V48.6527L29.2519 48.4986L29.4045 48.3445L29.5571 48.1905L29.7097 48.0364L29.8623 47.8823L30.015 47.7282L30.1675 47.5742L30.3202 47.4201L30.4728 47.266L30.6254 47.112L30.778 46.9579L30.9306 46.8038L31.0832 46.6497L31.2358 46.4957L31.3884 46.3416L31.541 46.1875L31.6936 46.0334L31.8462 45.8794L31.9988 45.7253L32.1514 45.5712L32.3041 45.4171L32.4566 45.2631L32.6093 45.109L32.7619 44.9549L32.9145 44.8008L33.0671 44.6468L33.2197 44.4927L33.3723 44.3386L33.5249 44.1845L33.6775 44.0305L33.8301 43.8764L33.9827 43.7223L34.1688 43.5344L34.355 43.3465L34.5411 43.1586L34.7272 42.9706L34.9134 42.7827L35.0995 42.5948L35.2856 42.4069L35.4718 42.219L35.6579 42.031L35.844 41.8431L36.0302 41.6552L36.2163 41.4673L36.4024 41.2793L36.5886 41.0914L36.7747 40.9035L36.9608 40.7156L37.147 40.5277L37.3331 40.3397L37.5192 40.1518L37.7053 39.9639L37.8915 39.776L38.0776 39.588L38.2638 39.4001L38.4499 39.2122L38.636 39.0243L38.8221 38.8364L39.0083 38.6484L39.1944 38.4605L39.3806 38.2726L39.5667 38.0847L39.7528 37.8967L39.9389 37.7088L39.9651 37.6825L39.9912 37.6561L40.0173 37.6297L40.0435 37.6033L40.0696 37.577L40.0957 37.5506L40.1218 37.5242L40.1479 37.4978L40.1741 37.4715L40.2002 37.4451L40.2263 37.4187L40.2524 37.3923L40.2786 37.366L40.3047 37.3396L40.3308 37.3132L40.3569 37.2868L40.383 37.2605L40.4092 37.2341L40.4353 37.2077L40.4614 37.1813L40.4875 37.155L40.5137 37.1286L40.5398 37.1022L40.5659 37.0758L40.592 37.0494L40.6182 37.0231L40.6443 36.9967L40.6704 36.9703L40.6965 36.944L40.7227 36.9176L40.7488 36.8912L40.7749 36.8648V36.8275V36.7901V36.7527V36.7154V36.678V36.6406V36.6033V36.5659V36.5285V36.4912V36.4538V36.4165V36.3791V36.3417V36.3044V36.267V36.2296V36.1923V36.1549V36.1175V36.0802V36.0428V36.0054V35.9681V35.9307V35.8934V35.856V35.8186V35.7813V35.7439V35.7065V35.6692V35.3355V35.0019V34.6682V34.3346V34.0009V33.6673V33.3337V33V32.6664V32.3327V31.9991V31.6654V31.3318V30.9982V30.6645V30.3309V29.9972V29.6636V29.3299V28.9963V28.6626V28.329V27.9954V27.6617V27.3281V26.9944V26.6608V26.3271V25.9935V25.6599V25.3262V24.9926V24.9468V24.9011V24.8552V24.8095V24.7638V24.7178V24.6721V24.6264V24.5807V24.535V24.489V24.4433V24.3976V24.3519V24.3062V24.2604V24.2147V24.1688V24.1231V24.0774V24.0316V23.9859V23.9402V23.8945V23.8486V23.8026V23.7569V23.7112V23.6655V23.6195V23.5738V23.5281L40.7383 23.5011L40.7018 23.474L40.6652 23.447L40.6286 23.42L40.592 23.3929L40.5555 23.3659L40.5189 23.3389L40.4823 23.3118L40.4457 23.2848L40.4092 23.2578L40.3726 23.2307L40.336 23.2037L40.2994 23.1767L40.2629 23.1496L40.2263 23.1226L40.1897 23.0955L40.1532 23.0685L40.1166 23.0415L40.08 23.0144L40.0435 22.9874L40.0069 22.9604L39.9703 22.9333L39.9337 22.9063L39.8972 22.8793L39.8606 22.8522L39.824 22.8252L39.7874 22.7982L39.7509 22.7711L39.7143 22.7441L39.6777 22.7171L39.6411 22.69L39.6046 22.663L39.2014 22.3656L38.7982 22.0682L38.395 21.7709L37.9918 21.4735L37.5887 21.1761L37.1855 20.8789L36.7823 20.5816L36.3791 20.2842L35.976 19.9868L35.5728 19.6894L35.1696 19.3921L34.7664 19.0949L34.3633 18.7975L33.9601 18.5001L33.5569 18.2028L33.1537 17.9054L32.7506 17.608L32.3474 17.3106L31.9442 17.0133L31.541 16.7159L31.1378 16.4187L30.7347 16.1213L30.3315 15.824L29.9283 15.5266L29.5251 15.2292L29.1219 14.9318L28.7188 14.6345L28.3156 14.3373L27.9124 14.0399L27.5092 13.7425L27.1061 13.4452L26.7029 13.1478L26.6502 13.1089L26.5975 13.07L26.5448 13.0311L26.4922 12.9922L26.4395 12.9533L26.3868 12.9144L26.3341 12.8755L26.2814 12.8366L26.2288 12.7977L26.1761 12.7587L26.1234 12.7199L26.0707 12.6809L26.018 12.642L25.9653 12.6031L25.9126 12.5642L25.86 12.5253L25.8073 12.4864L25.7546 12.4475L25.7019 12.4086L25.6492 12.3697L25.5965 12.3308L25.5439 12.2919L25.4912 12.253L25.4385 12.2141L25.3858 12.1752L25.3331 12.1363L25.2804 12.0974L25.2278 12.0585L25.1751 12.0196L25.1224 11.9807L25.0697 11.9418L25.017 11.9033Z" fill="url(#paint0_radial_800_4357)"/>
<g filter="url(#filter0_i_800_4357)">
<path d="M0.19224 41.4883C0.121629 41.5597 0 41.5097 0 41.4093V40.9564V40.2302V39.5042V38.778V38.0518V37.3257V36.5997V35.8735V35.1473V34.4213V33.6951V32.969V32.243V31.5168V30.7906V30.0646V29.3384V28.6122V27.8863V27.1601V26.4339V25.7079V24.9817V24.2555V23.5296V22.8034V22.0772V21.3512V20.625V19.8988V19.1729C0 18.7162 0.216925 18.2867 0.584452 18.0157L0.781769 17.8701L1.56351 17.2936L2.34528 16.7173L3.12702 16.1408L3.90876 15.5643L4.69053 14.9878L5.47251 14.4115L6.25425 13.835L7.03602 13.2585L7.81777 12.682L8.59951 12.1057L9.38128 11.5292L10.1633 10.9527L10.945 10.3761L11.7268 9.79985L12.5085 9.22333L13.2903 8.64682L14.072 8.0703L14.8538 7.49401L15.6355 6.9175L16.4173 6.34099L17.1993 5.76447L17.981 5.18796L18.7628 4.61166L19.5445 4.03515L20.3263 3.45864L21.108 2.88213L21.89 2.30583L22.6718 1.72932L23.4535 1.15281L24.2353 0.576295C24.7001 0.23363 25.3339 0.233622 25.7988 0.576295L26.5805 1.15281L27.3625 1.72932L28.1443 2.30583L28.926 2.88213L29.7078 3.45864L30.4895 4.03515L31.2713 4.61166L32.053 5.18796L32.835 5.76447L33.6168 6.34099L34.3985 6.9175L35.1802 7.49401L35.962 8.0703L36.7438 8.64682L37.5255 9.22333L38.3073 9.79985L39.0893 10.3761L39.871 10.9527L40.6528 11.5292L41.4345 12.1057L42.2163 12.682L42.998 13.2585L43.78 13.835L44.5618 14.4115L45.3435 14.9878L46.1252 15.5643L46.907 16.1408L47.6888 16.7173L48.4705 17.2936L49.2523 17.8701L49.4497 18.0157C49.8173 18.2867 50.0342 18.7162 50.0342 19.1729V19.8988V20.625V21.3512V22.0772V22.8034V23.5296V24.2555V24.9817V25.7079V26.4339V27.1601V27.8863V28.6122V29.3384V30.0646V30.7906V31.5168V32.243V32.969V33.6951V34.4213V35.1473V35.8735V36.5997V37.3257V38.0518V38.778V39.5042V40.2302V40.9564V41.4091C50.0342 41.5096 49.9125 41.5597 49.8418 41.4883L49.6496 41.2942L49.4571 41.0999L49.2649 40.9058L49.0727 40.7118L48.8802 40.5175L48.688 40.3234L48.4958 40.1293L48.3033 39.935L48.1111 39.7409L47.9189 39.5469L47.7264 39.3526L47.5342 39.1585L47.342 38.9642L47.1495 38.7701L46.9573 38.576L46.7651 38.3818L46.5726 38.1877L46.3804 37.9936L46.1882 37.7993L45.9957 37.6052L45.8035 37.4112L45.6111 37.2169L45.4188 37.0228L45.2266 36.8285L45.0342 36.6344L44.8419 36.4403L44.6497 36.246L44.4572 36.052L44.265 35.8579L44.0726 35.6636C43.9494 35.5393 43.8804 35.3713 43.8804 35.1964V35.0361V34.6029V34.1694V33.7362V33.3028V32.8694V32.4362V32.0027V31.5695V31.1361V30.7027V30.2695V29.836V29.4026V28.9694V28.536V28.1028V27.6693V27.2359V26.8027V26.3693V25.9361V25.5026V25.0692V24.636V24.2026V23.7694V23.3359V22.9025V22.4693V22.0359C43.8804 21.7634 43.751 21.5072 43.5317 21.3455L43.2908 21.1679L42.7015 20.7332L42.112 20.2986L41.5225 19.8639L40.9329 19.4293L40.3434 18.9946L39.7541 18.5599L39.1646 18.1253L38.5751 17.6906L37.9855 17.2558L37.3962 16.8213L36.8067 16.3866L36.2172 15.952L35.6276 15.5173L35.0381 15.0825L34.4488 14.648L33.8593 14.2133L33.2697 13.7785L32.6802 13.344L32.0909 12.9092L31.5014 12.4747L30.9119 12.04L30.3223 11.6052L29.7328 11.1707L29.1435 10.7359L28.554 10.3014L27.9644 9.86666L27.3749 9.43191L26.7854 8.99739L26.1961 8.56264L25.6065 8.12789C25.256 7.8695 24.778 7.8695 24.4275 8.12789L23.8382 8.56264L23.2486 8.99739L22.6591 9.43191L22.0696 9.86666L21.4801 10.3014L20.8908 10.7359L20.3012 11.1707L19.7117 11.6052L19.1222 12.04L18.5327 12.4747L17.9433 12.9092L17.3538 13.344L16.7643 13.7785L16.1748 14.2133L15.5855 14.648L14.9959 15.0825L14.4064 15.5173L13.8169 15.952L13.2273 16.3866L12.638 16.8213L12.0485 17.2558L11.459 17.6906L10.8694 18.1253L10.2802 18.5599L9.69063 18.9946L9.1011 19.4293L8.51157 19.8639L7.92204 20.2986L7.33273 20.7332L6.7432 21.1679L6.50233 21.3455C6.28308 21.5072 6.15367 21.7634 6.15367 22.0359V22.4693V22.9025V23.3359V23.7694V24.2026V24.636V25.0692V25.5026V25.9361V26.3693V26.8027V27.2359V27.6693V28.1028V28.536V28.9694V29.4026V29.836V30.2695V30.7027V31.1361V31.5695V32.0027V32.4362V32.8694V33.3028V33.7362V34.1694V34.6029V35.0361V35.1964C6.15367 35.3713 6.08459 35.5393 5.96146 35.6636L5.769 35.8579L5.57679 36.052L5.38455 36.246L5.1921 36.4403L4.99989 36.6344L4.80765 36.8285L4.61519 37.0228L4.42298 37.2169L4.23053 37.4112L4.03831 37.6052L3.84607 37.7993L3.65386 37.9936L3.46141 38.1877L3.26917 38.3818L3.07674 38.576L2.8845 38.7701L2.69229 38.9642L2.49984 39.1585L2.3076 39.3526L2.11538 39.5469L1.92293 39.7409L1.73069 39.935L1.53848 40.1293L1.34602 40.3234L1.15381 40.5175L0.961359 40.7118L0.769119 40.9058L0.576906 41.0999L0.384453 41.2942L0.19224 41.4883Z" fill="url(#paint1_linear_800_4357)"/>
</g>
<defs>
<filter id="filter0_i_800_4357" x="0" y="0.319336" width="50.0343" height="41.8883" filterUnits="userSpaceOnUse" color-interpolation-filters="sRGB">
<feFlood flood-opacity="0" result="BackgroundImageFix"/>
<feBlend mode="normal" in="SourceGraphic" in2="BackgroundImageFix" result="shape"/>
<feColorMatrix in="SourceAlpha" type="matrix" values="0 0 0 0 0 0 0 0 0 0 0 0 0 0 0 0 0 0 127 0" result="hardAlpha"/>
<feMorphology radius="0.685772" operator="erode" in="SourceAlpha" result="effect1_innerShadow_800_4357"/>
<feOffset dy="0.716251"/>
<feComposite in2="hardAlpha" operator="arithmetic" k2="-1" k3="1"/>
<feColorMatrix type="matrix" values="0 0 0 0 1 0 0 0 0 1 0 0 0 0 1 0 0 0 0.14 0"/>
<feBlend mode="normal" in2="shape" result="effect1_innerShadow_800_4357"/>
</filter>
<radialGradient id="paint0_radial_800_4357" cx="0" cy="0" r="1" gradientUnits="userSpaceOnUse" gradientTransform="translate(25.017 30.2782) rotate(90) scale(18.3749 15.7579)">
<stop stop-color="#AF79EC"/>
<stop offset="1" stop-color="#3B0F6D"/>
</radialGradient>
<linearGradient id="paint1_linear_800_4357" x1="25.0171" y1="0" x2="25.0171" y2="41.6826" gradientUnits="userSpaceOnUse">
<stop stop-color="#3B0F6D"/>
<stop offset="1" stop-color="#6A13CC"/>
</linearGradient>
</defs>
</svg>
